<svg preserveAspectRatio="none" overflow="visible" style="display: block;" width="16" height="16" viewBox="0 0 16 16" fill="none" xmlns="http://www.w3.org/2000/svg">
<g id="location-01">
<path id="Vector" d="M9.07847 14.2445C8.7894 14.5152 8.40293 14.6665 8.00073 14.6665C7.59853 14.6665 7.21213 14.5152 6.923 14.2445C4.27535 11.7505 0.727174 8.96447 2.45751 4.91964C3.39309 2.73264 5.63889 1.3332 8.00073 1.3332C10.3626 1.3332 12.6084 2.73264 13.544 4.91964C15.2721 8.9594 11.7327 11.7591 9.07847 14.2445Z" stroke="#5B564C"/>
<path id="Vector_2" d="M10.3333 7.33333C10.3333 8.622 9.2886 9.66667 7.99994 9.66667C6.71127 9.66667 5.6666 8.622 5.6666 7.33333C5.6666 6.04467 6.71127 5 7.99994 5C9.2886 5 10.3333 6.04467 10.3333 7.33333Z" stroke="#5B564C"/>
</g>
</svg>
